<?xml version="1.0" encoding="iso-8859-1"?>
<!-- Generator: Adobe Illustrator 18.0.0, SVG Export Plug-In . SVG Version: 6.00 Build 0)  -->
<!DOCTYPE svg PUBLIC "-//W3C//DTD SVG 1.1//EN" "http://www.w3.org/Graphics/SVG/1.1/DTD/svg11.dtd">
<svg version="1.1" id="Capa_1" xmlns="http://www.w3.org/2000/svg" xmlns:xlink="http://www.w3.org/1999/xlink" x="0px" y="0px"
	 viewBox="0 0 497.417 497.417" style="enable-background:new 0 0 497.417 497.417;" xml:space="preserve">
<style type="text/css">
	
</style>
<path d="M387.205,0H110.213C82.982,0,60.83,22.148,60.83,49.384v398.649c0,27.235,22.152,49.384,49.384,49.384h276.991
	c27.225,0,49.383-22.148,49.383-49.384V49.384C436.587,22.148,414.429,0,387.205,0z M402.312,448.033
	c0,8.329-6.785,15.106-15.107,15.106H110.213c-8.328,0-15.103-6.777-15.103-15.106V49.384c0-8.329,6.774-15.107,15.103-15.107
	h276.991c8.322,0,15.107,6.778,15.107,15.107V448.033z"
	fill="gray"
	stroke="black"
/>
<path d="M175.877,146.138h111.403c9.457,0,17.129-7.671,17.129-17.14c0-9.469-7.672-17.141-17.129-17.141H175.877
	c-9.461,0-17.14,7.672-17.14,17.141C158.738,138.466,166.416,146.138,175.877,146.138z"
	fill="rgb(72,128,44)"
/>
<path d="M321.55,197.548H175.877c-9.461,0-17.14,7.679-17.14,17.137c0,9.462,7.679,17.141,17.14,17.141H321.55
	c9.469,0,17.147-7.679,17.147-17.141C338.697,205.227,331.019,197.548,321.55,197.548z"
	fill="gray"
/>
<g transform="translate(0,171.5)">
	<path d="M175.877,146.138h111.403c9.457,0,17.129-7.671,17.129-17.14c0-9.469-7.672-17.141-17.129-17.141H175.877
		c-9.461,0-17.14,7.672-17.14,17.141C158.738,138.466,166.416,146.138,175.877,146.138z"
		fill="rgb(243,222,0)"
	/>
</g>
<path d="M321.55,368.933H175.877c-9.461,0-17.14,7.671-17.14,17.141c0,9.469,7.679,17.129,17.14,17.129H321.55
	c9.469,0,17.147-7.66,17.147-17.129C338.697,376.603,331.019,368.933,321.55,368.933z"
	fill="rgb(72,128,44)"
/>

</svg>
